<svg width="371" height="329" viewBox="0 0 371 329" fill="none" xmlns="http://www.w3.org/2000/svg">
<g clip-path="url(#clip0)">
<path opacity="0.2" d="M80.6997 58.8212C80.6997 58.8212 142.119 -11.3655 213.477 22.7309C284.834 56.8273 223.912 87.7333 236.633 86.836C249.354 85.9388 312.264 35.5918 338.402 113.854C364.54 192.016 347.943 234.986 295.766 241.067C243.59 247.248 317.73 271.774 287.021 293.408C256.311 315.042 140.628 341.662 113.596 305.771C86.5633 269.88 113.795 224.916 113.795 224.916C113.795 224.916 80.004 282.741 50.9839 251.635C21.9638 220.53 21.8644 140.972 51.282 128.41C80.6997 115.848 102.167 101.192 87.8553 102.289C73.544 103.386 60.9223 80.7545 80.6997 58.8212Z" fill="#6A8185"/>
<path d="M158.418 151.44C158.418 151.44 135.46 149.845 128.205 124.92C120.95 99.9961 95.4085 78.7606 91.3337 69.5885C87.259 60.4164 119.459 58.223 137.547 74.4736C155.635 90.7242 169.847 132.697 158.418 151.44Z" fill="#3E2D4A"/>
<path d="M155.337 149.246C154.442 148.349 153.548 145.159 152.157 140.274C148.479 127.413 141.622 103.485 124.528 87.0354C112.502 75.5703 105.148 70.7848 101.073 68.7909C96.601 66.6973 95.0109 67.2954 95.0109 67.2954L94.8121 66.8966C95.1103 66.7969 101.471 64.4042 124.727 86.7363C141.92 103.286 148.778 127.213 152.455 140.174C153.747 144.76 154.741 148.05 155.536 148.947L155.337 149.246Z" fill="#FEFADA"/>
<path d="M120.553 83.1473C120.254 83.1473 119.956 82.8482 119.658 82.6488C115.782 79.1594 100.079 79.4585 99.9801 79.4585V79.0597C100.676 79.0597 115.981 78.7606 119.956 82.3497C120.354 82.7485 120.553 82.7485 120.652 82.7485C121.447 82.1503 118.366 73.4767 116.776 69.2894C115.882 66.797 115.385 65.4012 115.285 65.0024H115.683C115.683 65.4012 116.378 67.1957 117.174 69.1897C120.254 77.6639 121.845 82.4494 120.851 83.0476C120.652 83.1473 120.652 83.1473 120.553 83.1473Z" fill="#FEFADA"/>
<path d="M135.162 100.594C134.864 100.594 134.566 100.495 134.168 100.295C129.298 97.3042 116.279 99.1985 116.08 99.1985L115.981 98.7997C116.478 98.7 129.298 96.9054 134.268 99.8963C134.764 100.195 135.063 100.195 135.261 100.096C136.156 99.3979 135.063 94.7121 133.87 89.7273C132.578 84.0445 130.988 77.6639 131.286 73.2773H131.684C131.385 77.5642 132.876 83.9448 134.268 89.5279C135.758 95.9085 136.553 99.5973 135.46 100.395C135.46 100.495 135.361 100.594 135.162 100.594Z" fill="#FEFADA"/>
<path d="M145.697 121.331C145.299 121.331 145.001 120.932 144.802 120.534C141.92 115.449 124.727 111.461 124.528 111.461L124.627 111.062C125.323 111.262 142.218 115.05 145.2 120.334C145.498 120.932 145.697 120.932 145.697 120.932C146.492 120.733 146.79 115.25 147.088 109.966C147.486 102.887 147.983 94.1139 149.672 89.3285L150.07 89.4282C148.38 94.2136 147.883 102.987 147.486 109.966C147.088 117.244 146.79 121.032 145.796 121.231C145.796 121.331 145.796 121.331 145.697 121.331Z" fill="#FEFADA"/>
<path d="M151.461 140.872C149.573 140.872 145.697 138.479 141.224 135.787C137.15 133.295 132.876 130.703 129.994 129.905L130.093 129.506C132.976 130.304 137.249 132.896 141.423 135.488C145.995 138.28 150.666 141.171 151.958 140.473C152.157 140.373 152.256 140.074 152.256 139.775C152.455 135.089 159.511 118.639 159.809 117.942L160.207 118.141C160.107 118.34 152.852 135.289 152.654 139.775C152.654 140.274 152.455 140.672 152.057 140.872C151.958 140.872 151.759 140.872 151.461 140.872Z" fill="#FEFADA"/>
<path d="M166.766 185.436C166.766 185.436 187.935 176.364 186.742 150.443C185.55 124.522 202.743 96.1079 203.638 86.1382C204.532 76.1685 173.325 84.543 161.499 105.878C149.672 127.213 149.871 171.479 166.766 185.436Z" fill="#CA9661"/>
<path d="M169.052 182.346L168.654 182.146C169.151 181.05 168.953 177.56 168.754 172.875C168.058 159.515 166.766 134.591 177.698 113.355C192.507 84.6427 199.265 84.8421 199.563 84.8421V85.2409C199.464 85.2409 192.705 85.1412 178.096 113.455C167.263 134.591 168.555 159.415 169.151 172.775C169.35 177.859 169.549 181.149 169.052 182.346Z" fill="#FEFADA"/>
<path d="M180.382 108.57H180.282C179.189 108.271 179.09 103.286 179.289 94.2136C179.289 92.0203 179.388 90.126 179.289 89.7273L179.686 89.6276C179.785 90.0264 179.785 91.5218 179.686 94.2136C179.587 98.7 179.388 107.872 180.382 108.171C180.481 108.171 180.581 108.072 180.879 107.573C183.463 102.887 198.072 98.2015 198.668 98.0021L198.768 98.4009C198.569 98.4009 183.761 103.286 181.177 107.772C181.077 108.072 180.779 108.57 180.382 108.57Z" fill="#FEFADA"/>
<path d="M172.033 129.805C171.934 129.805 171.934 129.805 171.835 129.805C170.543 129.407 170.145 125.718 169.45 119.138C168.853 113.355 168.257 106.875 166.567 102.887L166.965 102.688C168.654 106.676 169.35 113.256 169.847 119.038C170.344 124.123 170.841 129.008 171.934 129.307C172.133 129.407 172.431 129.207 172.829 128.808C176.605 124.322 189.227 121.83 189.823 121.73L189.923 122.129C189.823 122.129 176.804 124.621 173.226 129.008C172.729 129.606 172.431 129.805 172.033 129.805Z" fill="#FEFADA"/>
<path d="M168.953 152.935C167.959 152.935 166.468 149.446 163.785 142.766C161.101 136.286 157.822 128.111 154.641 124.123L154.939 123.824C158.12 127.812 161.399 135.987 164.083 142.567C166.071 147.452 168.158 152.437 168.853 152.437C168.853 152.437 169.052 152.437 169.151 151.739C170.245 145.757 184.953 136.685 185.55 136.286L185.749 136.585C185.55 136.685 170.642 146.056 169.549 151.839C169.549 152.237 169.35 152.835 168.953 152.935Z" fill="#FEFADA"/>
<path d="M169.45 173.273C169.35 173.273 169.35 173.273 169.251 173.273C168.853 173.174 168.555 172.974 168.356 172.476C166.766 168.189 154.343 154.63 154.144 154.431L154.443 154.132C154.939 154.73 167.064 167.989 168.654 172.276C168.754 172.575 168.953 172.775 169.251 172.875C170.742 173.074 174.22 168.887 177.599 164.799C180.68 161.011 183.86 157.222 186.345 155.527L186.544 155.826C184.059 157.521 180.978 161.31 177.897 165.098C174.319 169.485 171.139 173.273 169.45 173.273Z" fill="#FEFADA"/>
<path d="M106.241 263.998C106.241 263.998 87.8553 250.14 66.0902 264.197C44.2258 278.155 11.131 277.457 1.98764 281.644C-7.15568 285.831 15.802 308.762 40.151 308.363C64.5001 307.964 102.564 285.632 106.241 263.998Z" fill="#CA9661"/>
<path d="M28.7219 290.816C5.66479 290.816 3.18019 286.031 3.08081 285.831L3.47835 285.632C3.47835 285.732 6.95679 291.713 38.6602 290.118C62.3136 289.022 83.1842 275.463 94.3152 268.185C98.4893 265.493 101.272 263.599 102.564 263.499V263.898C101.371 263.998 98.4893 265.892 94.514 268.484C83.2836 275.762 62.413 289.42 38.6602 290.517C34.8837 290.816 31.604 290.816 28.7219 290.816Z" fill="#FEFADA"/>
<path d="M17.3921 300.985L17.0939 300.686C17.3921 300.387 18.6841 299.689 21.0693 298.393C24.9453 296.2 32.9954 291.813 32.7966 290.816C32.7966 290.716 32.5978 290.617 32.1009 290.617C32.1009 290.617 32.1009 290.617 32.0015 290.617C26.6348 290.617 15.305 280.348 14.8081 279.949L15.1063 279.65C15.2056 279.75 26.7342 290.218 32.0015 290.218H32.1009C32.4984 290.218 33.0947 290.318 33.1941 290.716C33.4923 291.813 29.2188 294.405 21.3674 298.792C19.2804 299.889 17.5909 300.786 17.3921 300.985Z" fill="#FEFADA"/>
<path d="M35.0825 305.372L34.7843 305.172C37.3683 301.683 42.735 297.895 47.4061 294.505C51.5802 291.514 55.5555 288.623 55.2574 287.526C55.158 287.327 54.9592 287.127 54.3629 287.028C48.5987 286.031 40.151 276.26 39.7535 275.862L40.0516 275.562C40.151 275.662 48.7974 285.632 54.3629 286.629C55.0586 286.728 55.4562 287.028 55.5555 287.426C55.8537 288.722 52.8722 290.916 47.5054 294.804C42.9338 298.194 37.6664 301.982 35.0825 305.372Z" fill="#FEFADA"/>
<path d="M59.4315 305.272L59.034 305.172C60.9223 300.387 66.289 293.408 70.5625 287.825C73.8422 283.638 77.1218 279.351 76.7243 278.653C76.7243 278.653 76.6249 278.553 75.9292 278.753C70.2643 280.747 54.9592 272.571 54.3629 272.272L54.5617 271.874C54.7605 271.973 70.2643 280.348 75.8298 278.354C76.2274 278.254 76.8237 278.055 77.0224 278.454C77.6187 279.251 75.3329 282.342 70.8606 288.124C66.5871 293.608 61.2204 300.487 59.4315 305.272Z" fill="#FEFADA"/>
<path d="M85.7682 290.417L85.3707 290.318C85.5695 289.62 91.0356 272.472 93.9177 268.883C94.1165 268.584 94.2159 268.384 94.1165 268.085C93.6196 266.689 88.1535 265.792 82.9855 264.895C78.2151 264.097 73.2459 263.3 70.5625 262.004L70.7613 261.605C73.4446 262.901 78.3144 263.698 83.0849 264.496C88.9485 265.493 93.9177 266.291 94.6134 267.886C94.7128 268.285 94.7128 268.683 94.3153 269.082C91.3337 272.572 85.7682 290.218 85.7682 290.417Z" fill="#FEFADA"/>
<path d="M221.527 278.055C221.527 278.055 201.849 266.091 181.574 282.142C161.201 298.293 128.205 300.786 119.559 305.87C110.912 310.955 135.957 331.492 160.107 328.701C184.258 325.909 220.036 299.988 221.527 278.055Z" fill="#6E6C7B"/>
<path d="M135.56 313.048C123.037 313.048 121.05 310.157 120.95 309.958L121.248 309.759L121.05 309.858L121.248 309.759C121.248 309.858 125.224 315.441 156.629 310.855C180.084 307.366 199.463 291.913 209.899 283.538C213.775 280.448 216.359 278.354 217.651 278.055L217.75 278.454C216.557 278.653 213.874 280.846 210.197 283.837C199.762 292.212 180.282 307.765 156.728 311.254C147.486 312.55 140.628 313.048 135.56 313.048Z" fill="#FEFADA"/>
<path d="M136.752 323.716L136.454 323.417C136.752 323.118 137.945 322.221 140.131 320.725C143.808 318.233 151.362 312.949 151.064 312.051C151.064 311.952 150.865 311.952 150.268 311.952C144.902 312.55 132.578 303.378 132.081 302.979L132.28 302.68C132.379 302.78 145.001 312.151 150.169 311.553C150.567 311.553 151.163 311.453 151.362 311.852C151.759 312.849 147.784 315.84 140.33 321.024C138.541 322.32 136.951 323.417 136.752 323.716Z" fill="#FEFADA"/>
<path d="M154.741 326.308L154.443 326.109C156.728 322.42 161.598 318.033 165.971 314.245C169.847 310.855 173.425 307.665 173.127 306.568C173.027 306.369 172.729 306.169 172.232 306.169C166.468 305.771 157.027 296.798 156.629 296.399L156.927 296.1C157.026 296.2 166.567 305.272 172.232 305.671C172.928 305.771 173.325 305.97 173.524 306.369C173.922 307.665 171.139 310.157 166.269 314.444C161.896 318.332 157.026 322.619 154.741 326.308Z" fill="#FEFADA"/>
<path d="M178.99 323.716L178.593 323.616C179.984 318.731 184.655 311.254 188.432 305.272C191.215 300.786 194.196 296.1 193.6 295.601C193.6 295.601 193.5 295.502 192.805 295.801C187.339 298.393 171.338 291.713 170.741 291.414L170.94 291.015C171.139 291.115 187.438 297.894 192.705 295.402C193.103 295.203 193.699 295.003 193.898 295.302C194.594 296.1 192.606 299.29 188.73 305.471C185.053 311.453 180.382 318.831 178.99 323.716Z" fill="#FEFADA"/>
<path d="M203.737 306.369L203.339 306.269C203.538 305.571 207.215 287.925 209.799 284.037C209.998 283.738 209.998 283.438 209.899 283.239C209.203 281.943 203.737 281.544 198.47 281.145C193.6 280.846 188.631 280.448 185.848 279.451L185.947 279.052C188.73 280.049 193.699 280.448 198.47 280.747C204.333 281.145 209.501 281.445 210.197 283.04C210.396 283.438 210.296 283.837 209.998 284.236C207.613 288.124 203.836 306.169 203.737 306.369Z" fill="#FEFADA"/>
<path d="M267.243 278.055C267.243 278.055 286.921 266.091 307.196 282.142C327.569 298.293 360.565 300.786 369.211 305.87C377.858 310.955 352.813 331.492 328.663 328.701C304.512 326.009 268.734 299.988 267.243 278.055Z" fill="#3E2D4A"/>
<path d="M353.31 313.048C348.241 313.048 341.284 312.55 332.042 311.254C308.488 307.765 289.008 292.212 278.573 283.837C274.896 280.846 272.113 278.653 271.02 278.454L271.119 278.055C272.411 278.254 274.995 280.348 278.871 283.538C289.307 291.913 308.686 307.366 332.141 310.855C363.546 315.441 367.522 309.858 367.522 309.759L367.82 309.958C367.72 310.157 365.832 313.048 353.31 313.048Z" fill="#FEFADA"/>
<path d="M352.117 323.716C351.918 323.417 350.328 322.32 348.539 321.124C341.085 315.94 337.11 313.048 337.508 311.952C337.706 311.553 338.203 311.553 338.7 311.653C343.868 312.251 356.49 302.879 356.589 302.78L356.788 303.079C356.291 303.478 343.968 312.65 338.601 312.051C338.104 311.952 337.905 312.051 337.806 312.151C337.408 313.148 345.061 318.332 348.738 320.825C350.924 322.32 352.216 323.218 352.415 323.517L352.117 323.716Z" fill="#FEFADA"/>
<path d="M334.029 326.308C331.843 322.619 326.874 318.332 322.6 314.544C317.73 310.257 314.947 307.665 315.345 306.468C315.444 306.07 315.842 305.87 316.637 305.771C322.302 305.372 331.843 296.2 331.942 296.2L332.24 296.499C331.843 296.898 322.501 305.771 316.637 306.269C316.14 306.269 315.842 306.468 315.743 306.668C315.345 307.765 319.022 310.955 322.898 314.345C327.271 318.233 332.141 322.52 334.427 326.208L334.029 326.308Z" fill="#FEFADA"/>
<path d="M309.879 323.716C308.488 318.831 303.817 311.453 300.139 305.471C296.263 299.29 294.276 296.1 294.971 295.302C295.27 295.003 295.866 295.203 296.164 295.402C301.531 297.894 317.83 291.115 317.929 291.015L318.128 291.414C317.432 291.713 301.531 298.293 296.065 295.801C295.468 295.502 295.27 295.601 295.27 295.601C294.773 296.2 297.655 300.786 300.438 305.272C304.214 311.254 308.885 318.731 310.277 323.616L309.879 323.716Z" fill="#FEFADA"/>
<path d="M285.033 306.369C285.033 306.169 281.157 288.124 278.672 284.336C278.374 283.937 278.374 283.538 278.474 283.139C279.269 281.644 284.337 281.245 290.201 280.846C294.971 280.547 299.94 280.148 302.723 279.151L302.823 279.55C300.04 280.547 294.971 280.946 290.201 281.245C284.934 281.644 279.467 281.943 278.772 283.339C278.672 283.538 278.672 283.837 278.871 284.136C281.455 288.025 285.132 305.571 285.331 306.369H285.033Z" fill="#FEFADA"/>
<path d="M254.025 129.805C254.025 129.805 276.585 134.292 290.101 112.159C303.618 90.0264 333.83 76.2682 340.191 68.4918C346.552 60.7155 316.041 50.1476 294.276 61.0145C272.511 71.8815 247.863 108.67 254.025 129.805Z" fill="#6A8185"/>
<path d="M257.603 128.509L257.404 128.21C258.398 127.612 260.187 124.621 262.672 120.534C269.628 109.068 282.548 87.7333 303.518 76.3679C331.843 61.0145 337.309 65.0024 337.607 65.2018L337.408 65.5009C337.408 65.5009 336.017 64.5039 331.147 65.4012C326.675 66.1988 318.327 68.8906 303.717 76.7667C282.846 88.1321 270.026 109.368 263.069 120.833C260.386 125.02 258.696 127.811 257.603 128.509Z" fill="#FEFADA"/>
<path d="M329.358 75.8694C329.159 75.8694 314.152 71.383 309.481 73.6761C309.084 73.8754 308.587 74.0748 308.289 73.7757C307.593 72.9782 310.276 68.7909 315.544 61.4133C316.836 59.6188 317.929 58.0236 318.028 57.7245L318.426 57.8242C318.326 58.223 317.432 59.4194 315.842 61.6127C313.258 65.2018 307.991 72.7788 308.587 73.5764C308.587 73.5764 308.786 73.6761 309.283 73.377C314.053 70.9842 328.762 75.2712 329.358 75.4706V75.8694Z" fill="#FEFADA"/>
<path d="M308.587 90.5248C308.487 90.4251 296.363 85.2409 290.897 86.836C290.201 87.0354 289.704 86.9357 289.505 86.6366C288.71 85.6397 290.4 82.25 293.58 76.5673C296.363 71.4827 299.444 65.7003 300.338 61.513L300.736 61.6127C299.841 65.8997 296.76 71.6821 293.977 76.7666C291.493 81.253 289.207 85.54 289.903 86.4373C290.002 86.6366 290.4 86.6367 290.897 86.537C296.462 84.9418 308.388 90.0263 308.885 90.3254L308.587 90.5248Z" fill="#FEFADA"/>
<path d="M274.299 104.183C274.2 104.183 274.101 104.183 274.101 104.084C273.206 103.585 273.902 99.8964 275.492 92.7182C276.983 85.8391 278.772 77.2651 278.374 72.1806H278.772C279.169 77.2651 277.281 85.9388 275.89 92.8179C274.796 98.0021 273.604 103.386 274.299 103.685C274.299 103.685 274.498 103.785 274.995 103.286C279.269 98.9991 296.561 99.697 297.257 99.7967V100.195C297.058 100.195 279.467 99.3979 275.293 103.585C274.995 103.884 274.598 104.183 274.299 104.183Z" fill="#FEFADA"/>
<path d="M264.46 121.63C263.665 121.63 263.168 121.531 262.87 121.232C262.572 120.932 262.473 120.534 262.572 120.035C263.665 115.549 260.982 97.3042 260.982 97.1049L261.379 97.0052C261.479 97.8027 264.063 115.549 262.97 120.035C262.87 120.434 262.97 120.633 263.069 120.833C264.162 121.83 269.43 120.334 274.498 118.839C279.169 117.443 283.94 116.047 286.921 116.047V116.446C283.94 116.446 279.169 117.842 274.598 119.238C270.523 120.434 266.647 121.63 264.46 121.63Z" fill="#FEFADA"/>
<path d="M81.6935 221.228C81.6935 221.228 58.7359 221.626 49.2944 197.4C39.8529 173.174 12.7211 154.231 7.85131 145.458C2.9815 136.685 34.8837 131.7 54.363 146.355C73.8422 161.011 91.4332 201.587 81.6935 221.228Z" fill="#6A8185"/>
<path d="M78.4139 219.333C77.4201 218.436 76.2274 215.345 74.4385 210.66C69.6681 198.198 60.8229 174.868 42.3375 160.014C29.4176 149.645 21.6657 145.458 17.3922 143.863C12.8205 142.168 11.2304 142.866 11.2304 142.866L11.0316 142.467C11.3298 142.367 17.3922 139.376 42.5363 159.615C61.1211 174.569 69.9663 197.898 74.7367 210.46C76.4262 214.947 77.7182 218.137 78.6127 218.935L78.4139 219.333Z" fill="#FEFADA"/>
<path d="M37.9646 156.524C37.6664 156.524 37.3683 156.325 37.0701 156.125C32.896 152.935 17.2927 154.63 17.1934 154.63V154.231C17.889 154.132 33.0948 152.536 37.3683 155.727C37.7658 156.026 38.064 156.125 38.064 156.026C38.859 155.428 34.9831 147.053 33.0948 142.965C32.0016 140.573 31.3059 139.177 31.2065 138.778L31.604 138.678C31.7034 139.077 32.4985 140.772 33.3929 142.766C37.2689 150.941 39.1572 155.527 38.2627 156.225C38.1634 156.524 38.064 156.524 37.9646 156.524Z" fill="#FEFADA"/>
<path d="M35.0825 172.875L34.9832 172.476C35.4801 172.376 48.1018 169.485 53.3692 171.977C53.8661 172.177 54.1642 172.276 54.363 172.077C55.2575 171.379 53.6673 166.693 52.0772 161.808C50.2883 156.325 48.2012 150.044 48.1018 145.657H48.4994C48.5987 149.944 50.5864 156.125 52.3753 161.708C54.4624 167.989 55.5556 171.479 54.5618 172.376C54.2636 172.675 53.7667 172.675 53.1704 172.276C48.0024 169.884 35.1819 172.775 35.0825 172.875Z" fill="#FEFADA"/>
<path d="M66.3885 192.415C65.991 192.415 65.6928 192.016 65.4941 191.717C62.115 186.832 44.7228 184.439 44.524 184.439L44.6234 184.041C45.3191 184.14 62.4132 186.533 65.8916 191.518C66.2891 192.116 66.4879 192.016 66.4879 192.016C67.1836 191.817 67.0842 186.334 66.8854 180.95C66.6867 173.871 66.3885 165.098 67.6805 160.113L68.078 160.213C66.786 165.098 67.0842 173.871 67.283 180.95C67.4817 188.228 67.5811 192.016 66.5873 192.315C66.4879 192.415 66.4879 192.415 66.3885 192.415Z" fill="#FEFADA"/>
<path d="M73.6434 211.358C71.6557 211.358 67.6804 209.364 63.2081 207.17C58.9346 204.977 54.4623 202.784 51.5802 202.285L51.6796 201.886C54.6611 202.385 59.1334 204.678 63.4069 206.871C68.1773 209.264 73.0471 211.756 74.3391 210.859C74.5379 210.759 74.6372 210.46 74.6372 210.062C74.4385 205.376 80.1034 188.427 80.3021 187.63L80.6997 187.729C80.6003 187.929 74.836 205.376 75.0348 209.962C75.0348 210.46 74.9354 210.859 74.5379 211.058C74.2397 211.258 73.9416 211.358 73.6434 211.358Z" fill="#FEFADA"/>
<path d="M273.206 257.218C273.206 257.218 295.766 261.705 309.283 239.572C322.799 217.439 353.012 203.681 359.372 195.905C365.733 188.128 335.222 177.56 313.457 188.427C291.791 199.394 267.044 236.182 273.206 257.218Z" fill="#3E2D4A"/>
<path d="M276.784 255.922L276.585 255.623C277.579 255.025 279.368 252.034 281.853 247.946C288.81 236.481 301.729 215.146 322.699 203.781C351.024 188.427 356.49 192.415 356.788 192.615L356.589 192.914C356.589 192.914 355.198 191.917 350.328 192.814C345.856 193.612 337.508 196.303 322.898 204.179C302.028 215.545 289.207 236.78 282.25 248.245C279.567 252.433 277.877 255.224 276.784 255.922Z" fill="#FEFADA"/>
<path d="M348.539 203.282C348.341 203.282 333.334 198.796 328.662 201.089C328.265 201.288 327.768 201.488 327.47 201.188C326.774 200.391 329.458 196.204 334.725 188.726C336.017 186.932 337.11 185.337 337.209 185.038L337.607 185.137C337.508 185.536 336.613 186.732 335.023 188.926C332.439 192.515 327.172 200.092 327.768 200.889C327.768 200.889 327.967 200.989 328.464 200.69C333.234 198.297 347.943 202.584 348.539 202.784V203.282Z" fill="#FEFADA"/>
<path d="M327.768 218.037C327.669 217.938 315.544 212.753 310.078 214.348C309.382 214.548 308.885 214.448 308.686 214.149C307.891 213.152 309.581 209.762 312.761 204.08C315.544 198.995 318.625 193.213 319.519 189.025L319.917 189.125C319.022 193.412 315.941 199.195 313.159 204.279C310.674 208.765 308.388 213.052 309.084 213.95C309.183 214.149 309.581 214.149 310.078 214.049C315.643 212.454 327.569 217.539 328.066 217.838L327.768 218.037Z" fill="#FEFADA"/>
<path d="M293.481 231.596C293.381 231.596 293.282 231.596 293.282 231.496C292.387 230.998 293.083 227.309 294.673 220.131C296.164 213.252 297.953 204.678 297.555 199.593H297.953C298.35 204.678 296.462 213.352 295.071 220.231C293.978 225.415 292.785 230.798 293.481 231.098C293.481 231.098 293.679 231.197 294.176 230.699C298.45 226.412 315.743 227.11 316.438 227.209V227.608C316.24 227.608 298.649 226.811 294.474 230.998C294.176 231.297 293.779 231.596 293.481 231.596Z" fill="#FEFADA"/>
<path d="M283.642 249.043C282.846 249.043 282.35 248.943 282.051 248.644C281.753 248.345 281.654 247.946 281.753 247.448C282.846 242.961 280.163 224.717 280.163 224.518L280.561 224.418C280.66 225.215 283.244 242.961 282.151 247.448C282.051 247.847 282.151 248.046 282.25 248.245C283.343 249.242 288.611 247.747 293.679 246.251C298.35 244.856 303.121 243.46 306.102 243.46V243.859C303.121 243.859 298.35 245.255 293.779 246.65C289.704 247.946 285.828 249.043 283.642 249.043Z" fill="#FEFADA"/>
<path d="M115.981 169.884C115.981 169.884 112.801 131.799 136.454 127.911C156.629 124.621 172.63 133.594 180.481 153.932C188.332 174.27 121.248 175.965 115.981 169.884Z" fill="#6A8185"/>
<path d="M66.6866 107.075C66.6866 107.075 74.041 121.431 80.6997 120.434C87.4578 119.337 90.2406 110.065 101.073 113.954C111.906 117.842 121.845 140.672 132.379 143.962C142.914 147.252 125.522 171.279 125.522 171.279C125.522 171.279 41.3437 176.563 37.9646 170.382C34.5856 164.201 60.7236 132.996 63.2081 131.002C69.0718 126.515 60.6242 118.839 60.6242 118.839L66.6866 107.075Z" fill="#E7BD9F"/>
<path d="M66.6867 97.2046C66.6867 97.2046 75.7306 115.549 65.991 119.238C59.3323 121.73 51.8785 111.362 51.8785 105.38C51.7791 99.2982 61.2205 94.413 66.6867 97.2046Z" fill="#E7BD9F"/>
<path d="M59.2123 110.511C59.5204 110.395 59.6445 109.966 59.4894 109.554C59.3344 109.142 58.9589 108.902 58.6508 109.019C58.3427 109.136 58.2186 109.564 58.3736 109.976C58.5287 110.388 58.9042 110.628 59.2123 110.511Z" fill="#34263B"/>
<path d="M65.3929 108.224C65.7011 108.107 65.8252 107.679 65.6701 107.267C65.5151 106.854 65.1396 106.615 64.8315 106.732C64.5233 106.848 64.3993 107.277 64.5543 107.689C64.7093 108.101 65.0848 108.341 65.3929 108.224Z" fill="#34263B"/>
<path d="M69.2706 106.676C69.2706 106.676 69.1712 102.987 71.1589 103.884C73.1465 104.782 72.9478 109.268 71.5564 109.766C70.2644 110.265 69.1712 108.271 69.2706 106.676Z" fill="#E7BD9F"/>
<path d="M63.5063 104.383C63.5063 104.383 64.6989 103.386 66.1897 104.781C67.0841 105.579 62.1149 105.479 63.5063 104.383Z" fill="#A0444E"/>
<path d="M58.239 106.277C58.239 106.277 56.6488 106.078 56.1519 107.972C55.8538 109.168 59.9285 106.377 58.239 106.277Z" fill="#A0444E"/>
<path d="M55.3569 112.159C55.3569 112.159 53.071 109.368 52.1766 111.262C51.2821 113.256 54.363 116.546 55.655 115.948C57.0464 115.449 56.4501 113.256 55.3569 112.159Z" fill="#E7BD9F"/>
<path d="M52.2759 100.495C52.2759 100.495 55.7544 107.673 53.8661 111.461C53.8661 111.461 43.1326 108.57 52.2759 100.495Z" fill="#A0444E"/>
<path d="M63.7051 112.957C63.2082 112.957 62.115 112.558 61.5187 111.86L61.8168 111.661C62.3137 112.259 63.2082 112.658 63.6057 112.658C63.5064 112.159 62.7113 110.165 61.9162 108.47L62.3137 108.271C63.5064 111.062 64.1027 112.558 64.0033 112.857L63.9039 112.957C63.8045 112.957 63.7051 112.957 63.7051 112.957Z" fill="#C87D79"/>
<path d="M63.6057 115.349C62.2143 115.349 60.7235 114.253 60.6241 114.253L60.8229 113.954C60.8229 113.954 62.91 115.549 64.3013 114.851C65.0964 114.452 65.494 113.455 65.5933 111.86H65.9909C65.8915 113.655 65.3946 114.751 64.5001 115.15C64.3013 115.25 64.0032 115.349 63.6057 115.349Z" fill="#C87D79"/>
<path d="M55.2575 114.751C54.363 112.458 53.2698 112.558 53.2698 112.558L53.1704 112.159C53.2698 112.159 54.5618 111.96 55.5556 114.552L55.2575 114.751Z" fill="#C87D79"/>
<path d="M70.8607 108.869C69.9663 106.277 71.0595 105.479 71.0595 105.479L71.2583 105.778C71.2583 105.778 70.3638 106.377 71.1589 108.67L70.8607 108.869Z" fill="#C87D79"/>
<path d="M53.2697 127.014C53.2697 127.014 53.071 123.724 50.3876 121.431C47.7043 119.138 44.8221 115.648 46.5116 116.446C48.2012 117.244 50.1889 118.54 50.1889 118.54C50.1889 118.54 47.2073 115.648 47.7043 115.25C48.2012 114.851 52.1765 116.745 52.1765 116.745C52.1765 116.745 48.5987 114.652 49.9901 114.053C51.3815 113.455 61.2205 121.63 59.6303 124.621C57.6426 128.31 57.742 128.509 53.2697 127.014Z" fill="#E7BD9F"/>
<path d="M120.056 168.189C120.056 168.189 123.137 146.654 129.199 143.962C135.261 141.271 193.699 159.715 201.153 160.412C208.607 161.11 213.477 167.989 212.98 169.285C212.483 170.582 203.24 171.08 199.463 171.778C195.588 172.476 119.559 182.445 120.056 168.189Z" fill="#6A8185"/>
<path d="M125.621 144.76C125.621 144.76 122.64 135.688 127.609 131.401C145.2 116.147 193.202 148.947 201.451 156.524C207.017 161.609 218.744 166.992 217.949 168.189C217.154 169.385 205.923 163.204 202.047 163.304C198.171 163.304 122.441 158.618 125.621 144.76Z" fill="#6A8185"/>
<path d="M51.5802 122.528C51.5802 122.528 58.8353 121.929 59.9285 122.428C61.0217 122.926 62.2143 169.086 57.4439 171.678C52.6735 174.27 40.4492 174.769 36.1757 171.878C31.9022 168.986 48.3006 120.733 51.5802 122.528Z" fill="#C87D79"/>
<path d="M64.8977 129.207C64.8977 129.207 79.0102 139.576 80.6997 120.434C80.6997 120.434 91.135 111.461 99.0857 111.461C111.906 111.362 115.484 130.204 127.51 131.401C132.479 131.899 125.82 173.473 125.82 173.473C125.82 173.473 51.2821 175.068 47.5055 173.971C43.7289 172.875 46.0147 145.857 48.5987 142.168C51.2821 138.479 62.7112 128.509 64.8977 129.207Z" fill="#C87D79"/>
<path d="M60.823 118.839C60.823 118.839 65.1959 124.422 68.4756 123.923C71.7552 123.425 72.0534 115.15 72.0534 115.15L70.5626 113.256C70.5626 113.256 70.5626 122.926 60.823 118.839Z" fill="#C87D79"/>
<path d="M49.7913 98.2015C49.7913 98.2015 51.1827 94.5127 56.45 92.3194C61.7174 90.1261 68.873 86.7364 69.2705 88.3315C69.6681 89.9267 67.9785 93.6154 67.9785 93.6154C67.9785 93.6154 71.9539 90.7242 71.6557 92.9176C71.3576 95.1109 70.0656 100.096 62.2143 102.389C54.3629 104.682 46.3129 104.482 49.7913 98.2015Z" fill="#A0444E"/>
<path d="M64.5001 96.3073C64.5001 96.3073 67.2829 105.878 69.6681 105.28C69.6681 105.28 70.8607 100.395 69.3699 97.703C67.7798 95.0112 64.5001 96.3073 64.5001 96.3073Z" fill="#A0444E"/>
<path d="M56.8476 168.388L56.6488 168.089C60.9223 165.497 60.5248 132.996 60.5248 132.597H60.9223C60.9223 133.893 61.2205 165.597 56.8476 168.388Z" fill="#A34D5B"/>
<path d="M73.7428 133.793C68.5748 133.793 63.3075 131.201 63.3075 131.201L63.5063 130.802C63.6056 130.802 69.0718 133.594 74.3391 133.395C79.3083 133.195 81.6935 124.721 82.091 121.431L82.4886 121.531C82.2898 122.926 81.5941 125.917 80.4015 128.509C78.8114 131.999 76.7243 133.793 74.3391 133.893C74.1403 133.793 73.9416 133.793 73.7428 133.793Z" fill="#A34D5B"/>
<path d="M75.9294 141.47C75.9294 141.47 76.3269 131.002 87.756 125.02C94.4148 121.531 95.8061 128.709 96.2037 129.706C96.6012 130.703 78.9109 144.062 76.3269 143.763C73.7429 143.464 50.4871 145.458 49.9902 145.258C49.4932 144.959 47.8037 141.071 50.3877 139.177C52.9717 137.382 71.2583 135.089 75.9294 141.47Z" fill="#FEFADA"/>
<path d="M56.5494 170.582C56.5494 170.582 46.5116 143.464 49.0956 142.467C52.574 141.071 72.4508 141.171 76.0286 141.47C76.0286 141.47 90.5387 125.12 95.1103 126.216C99.682 127.213 109.422 157.322 107.533 157.521C105.645 157.721 93.9177 166.992 84.5756 171.18C84.5756 171.08 59.1334 171.778 56.5494 170.582Z" fill="#6A8185"/>
<path d="M100.378 159.116C100.378 159.116 95.1103 156.225 91.5325 156.026C88.0541 155.826 83.5818 156.325 85.2713 156.923C86.9609 157.521 89.4455 158.02 89.4455 158.02C89.4455 158.02 85.2713 158.02 85.3707 158.618C85.4701 159.216 89.7436 160.612 89.7436 160.612C89.7436 160.612 85.7683 159.615 86.2652 161.11C86.7621 162.606 94.3153 163.005 97.1974 165.995C99.9801 169.086 104.651 161.11 100.378 159.116Z" fill="#E7BD9F"/>
<path d="M97.4956 129.706C92.0295 123.425 96.0048 114.951 96.1042 114.851L96.5017 115.05C96.5017 115.15 92.5264 123.425 97.8931 129.407L97.4956 129.706Z" fill="#A34D5B"/>
<path d="M93.5203 152.835C93.5203 152.835 90.34 163.104 93.5203 166.693C96.7006 170.282 123.534 161.21 126.317 153.334C129.199 145.358 124.826 138.379 120.056 138.379C115.285 138.379 107.633 148.648 93.5203 152.835Z" fill="#C87D79"/>
<path d="M101.968 168.986C100.477 168.986 98.887 168.787 97.3962 168.488L97.4956 168.089C106.341 170.183 115.285 165.597 120.851 160.512C124.727 156.923 127.013 153.135 126.615 150.742C125.721 144.86 117.869 129.307 117.77 129.108L118.167 128.908C118.466 129.506 126.118 144.66 127.013 150.642C127.41 153.135 125.124 157.122 121.149 160.712C116.379 164.998 109.322 168.986 101.968 168.986Z" fill="#A34D5B"/>
<path d="M105.546 147.252L105.248 146.953C105.943 146.156 113 140.573 115.782 139.476L115.882 139.875C113.198 140.872 106.241 146.455 105.546 147.252Z" fill="#A34D5B"/>
<path d="M53.2698 140.672L53.1704 140.274C53.7667 140.174 67.9786 137.582 73.7429 140.274L73.5441 140.672C68.078 137.981 53.4686 140.672 53.2698 140.672Z" fill="#FEFADA"/>
<path d="M81.296 142.367C81.296 142.367 95.6073 133.993 96.303 132.597C96.6011 132.098 99.1851 140.473 99.1851 140.473C99.1851 140.473 85.6689 147.95 84.8738 148.15C84.0788 148.349 81.6936 143.962 81.296 142.367Z" fill="#FEFADA"/>
<path d="M98.9864 166.793C96.3031 161.409 97.0981 151.838 97.1975 151.44H97.595C97.595 151.539 96.8 161.31 99.3839 166.594L98.9864 166.793Z" fill="#A34D5B"/>
<path d="M60.3261 128.908C57.4439 127.812 49.2945 128.111 49.1951 128.111V127.712C49.4932 127.712 57.5433 127.413 60.5248 128.509L60.3261 128.908Z" fill="#A34D5B"/>
<path d="M50.3876 118.54L49.9901 118.34C49.9901 118.34 50.5864 117.343 52.0772 116.546L52.2759 116.945C50.8846 117.642 50.3876 118.54 50.3876 118.54Z" fill="#C87D79"/>
<path d="M168.953 136.086C160.803 132.198 146.79 130.204 136.951 134.092L136.852 133.694C146.889 129.706 161.002 131.799 169.151 135.688L168.953 136.086Z" fill="#515562"/>
<path d="M199.265 154.63C199.265 154.63 197.178 164.5 199.563 165.298C201.948 166.095 213.576 162.805 216.856 164.4C220.036 165.995 222.322 168.887 222.024 164.799C221.725 160.811 217.551 157.122 213.377 155.926C209.203 154.73 199.265 154.63 199.265 154.63Z" fill="#44324E"/>
<path d="M199.265 164.6C199.265 164.6 198.37 170.482 200.755 171.279C203.141 172.077 211.787 169.684 215.067 171.279C218.247 172.875 224.011 175.865 223.614 171.878C223.316 167.89 219.141 164.201 214.967 163.005C210.893 161.808 199.265 164.6 199.265 164.6Z" fill="#44324E"/>
<path d="M132.876 134.691C132.876 134.691 123.137 162.207 123.634 173.473C123.832 177.859 141.125 176.364 146.79 176.065C152.455 175.766 134.963 139.376 132.876 134.691Z" fill="#6A8185"/>
<path d="M127.708 154.829C126.516 153.832 127.51 149.346 128.404 145.458C128.802 143.863 129.1 142.367 129.199 141.37C129.497 138.28 132.479 134.691 132.678 134.491L132.976 134.79C132.976 134.79 129.994 138.379 129.597 141.37C129.497 142.367 129.199 143.763 128.802 145.458C128.006 148.947 126.913 153.633 128.006 154.431L127.708 154.829Z" fill="#515562"/>
<path d="M51.9778 102.289L51.7791 101.99C51.9778 101.89 56.7482 99.1985 58.9347 99.1985C63.5063 99.1985 66.1897 97.6033 66.786 94.3133L67.1836 94.413C66.5872 97.8027 63.8045 99.5973 58.9347 99.5973C56.947 99.4976 52.0772 102.189 51.9778 102.289Z" fill="#863A42"/>
<path d="M50.7852 100.794L50.4871 100.594C50.5864 100.395 53.1704 96.1079 56.6489 95.1109C58.0402 94.7121 59.1335 94.8118 60.0279 94.9115C61.4193 95.0112 62.2144 95.1109 63.1088 93.5158L63.5064 93.7152C62.5125 95.6094 61.4193 95.41 60.0279 95.3103C59.1335 95.2106 58.0402 95.1109 56.7482 95.5097C53.3692 96.5067 50.7852 100.794 50.7852 100.794Z" fill="#863A42"/>
<path d="M52.1766 109.766C52.0772 109.567 50.7852 105.38 51.4809 103.984L51.8784 104.183C51.2821 105.479 52.5741 109.667 52.5741 109.667L52.1766 109.766Z" fill="#863A42"/>
<path d="M68.8731 103.585C68.4755 101.392 67.3823 100.495 67.3823 100.495L67.6805 100.195C67.6805 100.195 68.7737 101.093 69.2706 103.485L68.8731 103.585Z" fill="#863A42"/>
<path d="M206.42 164.4C206.221 163.902 205.128 161.908 204.532 160.911L204.83 160.712C204.93 160.811 206.52 163.603 206.718 164.301L206.42 164.4Z" fill="#FEFADA"/>
<path d="M209.899 164.6L209.501 164.5C209.7 163.204 208.209 160.712 208.11 160.712L208.408 160.512C208.607 160.612 210.098 163.104 209.899 164.6Z" fill="#FEFADA"/>
<path d="M207.414 171.578C207.215 171.08 206.122 169.086 205.526 168.089L205.824 167.89C205.923 167.989 207.514 170.781 207.712 171.479L207.414 171.578Z" fill="#FEFADA"/>
<path d="M210.893 171.778L210.495 171.678C210.694 170.382 209.203 167.89 209.104 167.89L209.402 167.69C209.601 167.79 211.091 170.382 210.893 171.778Z" fill="#FEFADA"/>
<path d="M199.265 164.799C198.867 164.799 162.99 164.002 146.691 161.409C132.678 159.216 129.398 156.225 129.298 156.125L129.597 155.826C129.597 155.826 132.876 158.817 146.79 161.011C163.089 163.503 198.967 164.4 199.364 164.4L199.265 164.799Z" fill="#515562"/>
<path d="M75.5318 141.57C67.9786 138.778 52.1766 140.672 51.9778 140.672V140.274C52.1766 140.274 68.078 138.379 75.7305 141.171L75.5318 141.57Z" fill="#D3D0B1"/>
<path d="M77.7182 138.479L77.3207 138.379C79.9047 131.401 89.1474 126.316 89.2467 126.216L89.4455 126.615C89.2467 126.615 80.2028 131.6 77.7182 138.479Z" fill="#D3D0B1"/>
<path d="M84.5757 171.279C84.3769 171.279 83.9794 171.08 79.1096 157.122C76.625 150.144 74.2398 143.165 74.1404 143.065L74.5379 142.965C78.3145 153.832 84.1781 170.282 84.6751 170.98L84.5757 171.08V171.279Z" fill="#515562"/>
<path d="M88.6504 169.884C87.4578 166.494 78.1157 140.872 78.0164 140.672L78.5133 140.573C78.6127 140.872 87.9547 166.494 89.1474 169.784L88.6504 169.884Z" fill="#515562"/>
<path d="M31.4053 222.524C31.4053 222.524 168.555 223.82 174.319 222.524C180.084 221.228 193.699 220.43 195.389 223.122C197.078 225.913 202.743 270.478 194.494 273.17C186.245 275.862 28.9207 274.067 25.641 274.067C22.3614 274.067 24.4484 228.406 26.0386 226.113C27.6287 223.82 26.0386 223.421 31.4053 222.524Z" fill="#68818D"/>
<path d="M67.0841 234.986C67.0841 234.986 66.7859 256.421 69.0717 259.611C71.3576 262.801 167.76 262.402 171.04 261.705C174.319 261.007 172.332 234.188 172.332 234.188C172.332 234.188 66.7859 231.397 67.0841 234.986Z" fill="#493558"/>
<path d="M37.1696 222.424L36.3745 274.865C36.3745 274.865 43.1326 275.263 44.3252 275.263C45.5178 275.263 45.1203 221.527 45.1203 221.527L37.1696 222.424Z" fill="#493558"/>
<path d="M51.9778 222.324L51.1827 273.269C51.1827 273.269 57.9408 273.668 59.1334 273.668C60.3261 273.668 59.9285 221.527 59.9285 221.527L51.9778 222.324Z" fill="#493558"/>
<path d="M31.4053 172.775C31.4053 172.775 168.356 172.875 174.319 172.775C184.258 172.675 194.594 174.071 196.184 176.663C197.873 179.355 202.644 219.234 194.494 221.826C186.245 224.418 28.9207 222.723 25.641 222.723C22.3614 222.723 24.4484 178.458 26.0386 176.264C27.6287 174.071 26.0386 173.672 31.4053 172.775Z" fill="#493558"/>
<path d="M24.7465 181.847C24.7465 181.847 170.145 182.246 171.735 185.038C173.325 187.829 175.313 213.451 168.157 215.944C161.002 218.336 26.7342 219.134 23.1564 216.741C19.5786 214.348 19.5786 182.645 24.7465 181.847Z" fill="#FEFADA"/>
<path d="M122.342 190.92C114.093 190.92 106.043 190.621 99.3839 190.421C93.719 190.222 89.2467 190.022 86.2652 190.122C70.0656 190.521 25.1441 190.92 24.7466 190.92V190.521C25.2435 190.521 70.0656 190.122 86.2652 189.723C89.2467 189.624 93.719 189.823 99.3839 190.022C107.633 190.322 117.869 190.72 128.205 190.521C149.97 190.122 171.338 189.723 171.338 189.723V190.122C171.338 190.122 149.97 190.521 128.205 190.92C126.218 190.92 124.329 190.92 122.342 190.92Z" fill="#D3D0B1"/>
<path d="M77.2211 199.195C57.3444 199.195 23.1563 198.497 22.7588 198.497V198.098C23.3551 198.098 83.9793 199.294 90.638 198.497C93.9176 198.098 111.111 197.5 129.398 196.802C148.778 196.104 168.853 195.306 170.94 194.908L171.04 195.306C168.952 195.705 148.877 196.503 129.497 197.201C111.21 197.898 94.017 198.497 90.7374 198.895C89.0478 199.095 83.8799 199.195 77.2211 199.195Z" fill="#D3D0B1"/>
<path d="M61.9161 205.276C43.0332 205.276 22.6595 204.977 22.3613 204.877V204.478C22.8582 204.478 68.4754 205.276 86.6627 204.478C102.365 203.781 170.543 201.288 171.835 201.687L171.735 202.086C170.344 201.687 107.235 203.98 86.6627 204.877C80.6003 205.176 71.457 205.276 61.9161 205.276Z" fill="#D3D0B1"/>
<path d="M61.7174 211.956C43.3314 211.956 25.0447 211.657 24.7466 211.657V211.258C25.3429 211.258 81.1966 212.055 96.2036 210.859C101.868 210.361 113.099 210.261 124.925 210.062C144.802 209.762 167.362 209.364 171.636 207.669L171.835 208.068C167.561 209.862 144.902 210.161 125.025 210.46C113.198 210.66 101.968 210.859 96.3029 211.258C89.843 211.856 75.7305 211.956 61.7174 211.956Z" fill="#D3D0B1"/>
<path d="M139.435 209.962C139.435 209.962 125.025 191.119 126.615 190.322C128.205 189.524 153.747 187.131 153.349 189.524C153.051 191.917 141.026 209.962 139.435 209.962Z" fill="#6A8185"/>
<path d="M117.869 223.521C117.869 223.521 103.459 204.678 105.049 203.88C106.639 203.083 132.181 200.69 131.783 203.083C131.485 205.575 119.459 223.521 117.869 223.521Z" fill="#CA9661"/>
<path d="M63.9038 181.448C63.9038 181.448 68.6742 230.3 68.6742 233.191C68.6742 235.983 74.2397 220.33 74.2397 220.33C74.2397 220.33 79.0102 233.191 80.5009 232.593C81.9917 231.995 84.5756 183.442 82.1904 181.847C79.9046 180.252 63.9038 181.448 63.9038 181.448Z" fill="#B94D59"/>
<path d="M337.806 112.557C337.806 112.557 356.391 251.535 358.478 257.417C360.565 263.299 361.459 286.429 347.545 286.828C344.266 286.927 317.134 298.293 313.357 277.257C311.668 268.284 289.008 115.548 288.611 112.159C288.213 108.669 329.557 103.784 331.942 105.279C334.327 106.775 336.315 106.974 337.806 112.557Z" fill="#CA9661"/>
<path d="M308.289 247.946C308.289 247.946 351.421 239.372 354.602 240.768C357.782 242.164 359.372 261.605 360.167 269.282C361.062 277.058 356.092 286.928 343.073 288.822C330.054 290.617 314.053 292.91 312.065 274.765C310.575 261.106 308.289 247.946 308.289 247.946Z" fill="#C37E59"/>
<path d="M296.363 111.162C296.363 111.162 319.32 275.862 322.898 278.753C326.476 281.544 349.931 277.556 350.328 274.167C351.223 267.288 328.464 108.969 325.979 106.177C323.296 103.286 294.474 105.778 296.363 111.162Z" fill="#FEFADA"/>
<path d="M329.358 280.547C325.383 275.463 300.537 115.15 299.444 108.271L299.841 108.171C300.139 109.866 325.78 275.263 329.656 280.248L329.358 280.547Z" fill="#D3D0B1"/>
<path d="M339.297 275.961C339.098 274.466 319.519 123.126 316.14 105.778L316.538 105.679C319.917 123.126 339.495 274.366 339.694 275.862L339.297 275.961Z" fill="#D3D0B1"/>
<path d="M345.856 278.354H345.458C345.856 269.381 325.88 107.772 325.681 106.177H326.079C326.277 107.772 346.253 269.381 345.856 278.354Z" fill="#D3D0B1"/>
<path d="M336.613 277.955C336.315 276.36 307.394 120.534 308.09 105.38H308.488C307.792 120.534 336.713 276.36 337.011 277.955H336.613Z" fill="#D3D0B1"/>
<path d="M293.878 117.742C293.878 117.742 294.773 257.916 295.965 264.097C297.158 270.278 295.17 293.308 281.356 291.913C278.176 291.614 249.752 299.39 248.658 278.055C248.162 268.883 244.981 114.552 245.081 111.062C245.081 107.573 286.723 107.972 288.909 109.766C291.095 111.561 293.083 112.059 293.878 117.742Z" fill="#6E6C7B"/>
<path d="M247.366 248.246C247.366 248.246 291.294 245.255 294.276 247.049C297.257 248.844 295.269 267.387 295.17 275.164C295.071 282.94 290.002 293.109 276.883 293.309C263.765 293.508 247.764 293.508 249.354 275.363C250.348 261.505 247.366 248.246 247.366 248.246Z" fill="#57495B"/>
<path d="M252.833 111.162C252.833 111.162 254.721 277.457 257.901 280.747C261.081 284.037 284.834 282.94 285.629 279.65C287.319 272.871 284.934 112.957 282.747 109.866C280.66 106.775 251.64 105.479 252.833 111.162Z" fill="#FEFADA"/>
<path d="M264.162 283.239C260.883 277.756 256.51 115.449 256.311 108.57H256.709C256.709 110.265 261.28 277.656 264.56 283.04L264.162 283.239Z" fill="#D3D0B1"/>
<path d="M274.598 280.049C274.598 278.553 274.3 125.917 273.206 108.271H273.604C274.697 125.917 274.995 278.553 274.995 280.049H274.598Z" fill="#D3D0B1"/>
<path d="M280.759 283.239L280.362 283.139C281.853 274.366 282.548 111.461 282.548 109.866H282.946C282.946 111.461 282.35 274.366 280.759 283.239Z" fill="#D3D0B1"/>
<path d="M271.616 281.644C271.517 280.049 262.572 121.73 265.256 106.775L265.653 106.875C263.069 121.83 272.014 280.049 272.113 281.644H271.616Z" fill="#D3D0B1"/>
<path d="M246.273 114.153C246.273 114.153 247.466 259.611 249.056 265.792C250.547 271.874 251.64 286.33 248.857 288.124C245.975 289.919 199.066 296.798 196.084 288.025C193.103 279.251 191.91 112.458 191.91 108.869C191.811 105.38 240.111 106.775 242.497 108.47C244.882 110.165 245.18 108.57 246.273 114.153Z" fill="#493558"/>
<path d="M191.612 119.736C191.612 119.736 240.111 119.736 244.087 119.736C244.087 119.736 244.683 126.815 244.087 126.815C243.49 126.815 194.097 127.413 192.407 127.014C190.718 126.615 191.612 119.736 191.612 119.736Z" fill="#B94D59"/>
<path d="M191.612 132.298C191.612 132.298 240.111 132.298 244.087 132.298C244.087 132.298 244.683 139.376 244.087 139.376C243.49 139.376 194.097 139.975 192.407 139.576C190.718 139.177 191.612 132.298 191.612 132.298Z" fill="#B94D59"/>
<path d="M206.917 153.234C206.917 153.234 231.465 153.234 233.453 153.234C233.453 153.234 234.248 250.439 233.95 250.439C233.651 250.439 208.11 253.43 207.315 248.345C206.52 243.161 206.917 153.234 206.917 153.234Z" fill="#B94D59"/>
<path d="M177.599 61.0145C177.599 61.0145 181.574 68.8906 191.413 75.4706C201.352 82.0506 212.88 68.2924 212.88 68.2924C212.88 68.2924 181.873 58.0236 177.599 61.0145Z" fill="#E7BD9F"/>
<path d="M245.677 22.1327C245.677 22.1327 243.192 31.5042 244.186 34.5948C245.18 37.7851 256.808 38.5827 260.684 43.2685C264.461 47.9542 253.727 90.3255 253.628 93.2167C253.528 96.2076 212.383 90.8239 207.315 88.3315C202.246 85.8391 216.061 43.0691 220.93 39.2806C225.8 35.4921 230.67 38.9815 233.055 34.5948C235.44 30.1085 234.447 25.2233 234.447 25.2233L245.677 22.1327Z" fill="#E7BD9F"/>
<path d="M251.938 12.3624C251.938 12.3624 247.466 32.3018 237.527 29.0118C230.769 26.7188 231.564 13.9576 235.341 9.27183C239.118 4.58607 249.453 6.67971 251.938 12.3624Z" fill="#E7BD9F"/>
<path d="M238.543 17.3078C238.682 16.89 238.542 16.4665 238.23 16.3618C237.917 16.2571 237.551 16.5109 237.412 16.9287C237.273 17.3464 237.413 17.77 237.726 17.8747C238.038 17.9793 238.404 17.7256 238.543 17.3078Z" fill="#34263B"/>
<path d="M244.803 19.4181C244.942 19.0004 244.802 18.5768 244.49 18.4722C244.177 18.3675 243.811 18.6213 243.672 19.039C243.533 19.4568 243.673 19.8803 243.986 19.985C244.298 20.0897 244.664 19.8359 244.803 19.4181Z" fill="#34263B"/>
<path d="M247.963 21.3352C247.963 21.3352 250.149 18.4439 251.143 20.3382C252.137 22.2324 249.155 25.6221 247.764 25.2233C246.373 24.7248 246.87 22.4318 247.963 21.3352Z" fill="#E7BD9F"/>
<path d="M244.882 15.8518C244.882 15.8518 246.472 15.8518 246.77 17.8457C246.969 19.0421 243.192 15.7521 244.882 15.8518Z" fill="#34263B"/>
<path d="M239.614 13.9576C239.614 13.9576 238.521 12.8609 236.931 13.9576C235.937 14.6554 240.906 15.1539 239.614 13.9576Z" fill="#34263B"/>
<path d="M233.751 16.7491C233.751 16.7491 233.751 13.0603 231.763 14.0573C229.776 15.0542 230.074 19.5406 231.564 19.9394C232.956 20.3382 233.95 18.2445 233.751 16.7491Z" fill="#E7BD9F"/>
<path d="M238.72 5.78241C238.72 5.78241 236.832 13.5588 233.055 15.2536C233.055 15.2536 226.496 6.1812 238.72 5.78241Z" fill="#323044"/>
<path d="M250.249 9.67059C250.249 9.67059 247.068 17.0482 249.056 20.6373C249.155 20.6373 259.789 17.3473 250.249 9.67059Z" fill="#323044"/>
<path d="M252.733 11.2657C252.733 11.2657 255.417 5.78242 251.541 2.59211C247.665 -0.598189 239.316 3.98787 238.819 0.498478C238.521 -1.69486 236.037 3.98787 239.614 5.18423C239.614 5.18423 236.037 1.99393 235.838 2.69181C234.347 9.4712 248.658 16.45 252.733 11.2657Z" fill="#323044"/>
<path d="M242.695 9.07242C242.497 8.97273 242.397 8.97273 242.199 8.87303C239.316 7.87606 238.323 6.6797 238.024 5.88212C237.726 5.18424 237.925 4.68576 237.925 4.58606L238.124 4.68576L238.024 4.58606L238.124 4.68576C238.124 4.68576 237.925 5.08454 238.223 5.78242C238.521 6.4803 239.515 7.57697 242.199 8.57394C244.385 9.37151 246.174 9.57091 247.466 9.67061C249.056 9.87 250.05 9.9697 250.249 11.3655H249.95C249.752 10.1691 249.056 10.0694 247.366 9.9697C246.273 9.9697 244.683 9.7703 242.695 9.07242Z" fill="#493558"/>
<path d="M251.541 10.1691C251.541 10.1691 251.541 7.87606 247.863 6.18122C246.373 5.48334 245.18 5.68273 244.186 5.88213C243.491 6.08152 242.795 6.18122 242.298 5.78243C241.801 5.48334 241.403 4.68576 241.205 3.29L241.503 3.19031C241.801 4.48637 242.099 5.18425 242.497 5.48334C242.894 5.78243 243.491 5.68273 244.186 5.48334C245.18 5.28394 246.472 4.98485 248.062 5.78243C251.839 7.57697 251.839 9.87 251.839 9.9697L251.541 10.1691Z" fill="#493558"/>
<path d="M239.813 22.7309C239.416 22.6312 238.621 21.4348 238.72 20.3382H239.117C239.117 21.1357 239.614 21.9333 239.913 22.2324C240.211 21.7339 240.807 19.74 241.205 17.9454L241.602 18.0451C240.807 20.9363 240.31 22.5315 240.012 22.6312L239.813 22.7309Z" fill="#C87D79"/>
<path d="M239.416 24.9242C239.217 24.9242 239.118 24.9242 238.919 24.8245C237.229 24.4258 236.534 21.7339 236.434 21.6342L236.832 21.5345C236.832 21.5345 237.527 24.027 239.018 24.4258C239.813 24.6252 240.807 24.1267 241.9 22.9303L242.199 23.2294C241.205 24.4258 240.31 24.9242 239.416 24.9242Z" fill="#C87D79"/>
<path d="M232.36 18.8427L231.962 18.743C232.658 16.45 231.763 15.8518 231.763 15.8518L231.962 15.5527C232.061 15.453 233.155 16.1509 232.36 18.8427Z" fill="#C87D79"/>
<path d="M248.161 24.1267L247.764 24.027C248.758 21.4348 250.05 21.5345 250.05 21.5345V21.9333V21.7339V21.9333C250.05 21.9333 248.957 21.8336 248.161 24.1267Z" fill="#C87D79"/>
<path d="M262.473 157.023C262.473 157.023 258.398 168.588 260.386 173.074C262.373 177.56 267.541 179.853 270.324 179.355C273.107 178.856 266.746 172.476 266.15 168.189C265.554 164.002 268.038 157.023 268.038 157.023H262.473V157.023Z" fill="#44324E"/>
<path d="M251.839 157.92C251.839 157.92 247.764 169.485 249.752 173.971C251.739 178.458 256.907 180.751 259.69 180.252C262.473 179.754 256.112 173.373 255.516 169.086C254.92 164.799 257.404 157.92 257.404 157.92H251.839V157.92Z" fill="#44324E"/>
<path d="M225.601 104.682C225.601 104.682 231.266 89.2288 246.671 92.9176C262.075 96.6064 266.945 158.917 259.094 164.4C256.013 166.494 245.18 164.899 244.981 162.107C242.795 131.799 224.508 117.443 225.601 104.682Z" fill="#CA9661"/>
<path d="M239.714 93.6154C239.714 93.6154 264.858 90.0264 276.088 101.192C287.319 112.358 279.467 160.612 269.827 164.799C266.249 166.394 259.889 163.902 259.889 163.902C257.504 160.711 232.161 103.984 239.714 93.6154Z" fill="#CA9661"/>
<path d="M259.988 164.001L259.591 163.902C261.38 158.917 266.249 126.117 262.373 107.772C260.286 98.2015 257.205 94.8118 255.019 93.6154C252.932 92.5188 251.342 93.3164 251.342 93.3164L251.143 92.9176C251.242 92.9176 252.932 92.12 255.218 93.2167C257.504 94.413 260.684 97.8027 262.771 107.573C266.746 126.117 261.777 159.017 259.988 164.001Z" fill="#A36E4C"/>
<path d="M236.732 107.872C236.732 107.872 210.594 109.068 206.221 105.479C198.768 99.3979 207.215 88.3315 207.215 88.3315L246.472 92.8179C246.571 92.9176 246.074 107.772 236.732 107.872Z" fill="#CA9661"/>
<path d="M230.372 36.3894C230.372 36.3894 230.471 43.4679 238.621 44.2655C245.776 44.9633 245.081 35.9906 250.05 37.9845C255.019 39.9785 258.497 38.6824 261.479 46.2594C264.46 53.8364 260.088 95.2106 257.702 94.9115C255.317 94.7121 230.968 91.7212 222.322 97.4039C215.067 102.189 201.55 106.177 202.743 100.096C203.836 94.0142 206.718 48.8515 210.893 42.3712C213.477 38.2836 228.285 36.5888 230.372 36.3894Z" fill="#B94D59"/>
<path d="M169.946 54.6339C169.946 54.6339 215.663 48.6521 217.452 53.1385C219.241 57.6248 219.44 67.4948 217.452 68.1927C215.464 68.8906 172.133 71.8815 170.642 69.6882C169.151 67.3951 169.946 54.6339 169.946 54.6339Z" fill="#CA9661"/>
<path d="M168.754 41.0751L217.452 40.9754C218.843 45.6612 219.241 54.3348 217.154 54.4345C203.538 55.2321 187.339 56.0297 177.599 56.0297C172.232 56.0297 168.754 55.7306 168.754 55.1324C168.654 52.4406 168.754 41.0751 168.754 41.0751Z" fill="#C87D79"/>
<path d="M167.661 26.6191C167.661 26.6191 216.458 22.6312 217.849 27.317C219.241 31.903 218.644 40.3773 216.657 40.8757C214.669 41.3742 181.674 40.9754 168.754 41.2745C166.07 41.3742 167.661 26.6191 167.661 26.6191Z" fill="#493558"/>
<path d="M164.182 56.7276C164.182 56.7276 164.182 52.3409 164.58 51.3439C165.872 48.0539 168.456 44.7639 168.257 46.6582C168.058 48.4527 167.462 50.8455 167.462 50.8455C167.462 50.8455 169.251 47.057 169.748 47.3561C170.245 47.6551 169.748 52.1415 169.748 52.1415C169.748 52.1415 170.543 48.0539 171.636 49.2503C172.729 50.4467 169.946 53.2382 169.748 59.0206C169.549 63.2079 165.077 62.0115 164.182 56.7276Z" fill="#E7BD9F"/>
<path d="M227.191 108.969C226.595 108.969 226.098 108.869 225.899 108.67C225.701 108.47 225.601 108.271 225.601 108.072C225.502 105.778 234.148 103.087 235.043 102.788L235.142 103.186C232.558 103.984 225.8 106.377 225.899 108.072C225.899 108.171 225.999 108.371 226.098 108.371C226.893 108.969 229.676 108.271 232.359 107.673C234.546 107.174 236.732 106.676 238.223 106.676C238.223 106.676 238.223 106.676 238.322 106.676V107.075C238.322 107.075 238.322 107.075 238.223 107.075C236.732 107.075 234.546 107.573 232.459 108.072C230.372 108.57 228.483 108.969 227.191 108.969Z" fill="#A36E4C"/>
<path d="M247.168 163.403L246.77 163.304C247.168 159.914 247.565 149.944 241.702 130.404C238.124 118.34 233.552 108.171 230.769 105.479C230.272 104.981 229.776 104.781 229.477 104.881C224.608 105.978 211.489 103.186 210.893 103.087L210.992 102.688C211.091 102.688 224.608 105.579 229.378 104.482C229.875 104.383 230.372 104.582 231.068 105.18C233.95 107.872 238.521 118.141 242.199 130.204C243.987 136.884 248.46 153.234 247.168 163.403Z" fill="#A36E4C"/>
<path d="M254.224 49.9482C254.224 49.9482 262.672 56.8273 265.156 63.3076C267.641 69.7879 252.038 86.4373 245.379 87.2348C238.72 88.0324 202.842 68.5915 202.644 66.8967C202.445 65.2018 202.743 59.7185 204.93 60.0176C208.209 60.4164 231.763 68.5915 240.111 69.8876C244.385 70.4857 248.857 48.353 254.224 49.9482Z" fill="#E7BD9F"/>
<path d="M241.304 62.0115C241.304 62.0115 260.286 66.0991 264.063 70.8845C265.951 73.2773 269.132 62.4103 268.833 53.637C268.535 44.8636 252.634 37.187 250.05 37.9845C247.466 38.7821 241.304 62.0115 241.304 62.0115Z" fill="#B94D59"/>
<path d="M246.373 58.6218L245.975 58.5221C246.074 58.1233 247.267 48.8515 249.95 46.06C252.634 43.2685 257.504 42.2715 257.702 42.1718L257.802 42.5706C257.802 42.5706 252.833 43.5676 250.249 46.2594C247.665 49.0509 246.373 58.5221 246.373 58.6218Z" fill="#9B434C"/>
<path d="M206.42 98.3012L206.023 98.2015C206.122 97.9024 208.607 91.5218 224.906 90.6245C233.353 90.2257 240.31 90.6245 245.876 90.9236C250.944 91.2227 254.621 91.4221 256.907 90.8239L257.007 91.2227C254.721 91.8209 250.944 91.6215 245.876 91.3224C240.31 91.0233 233.353 90.6245 224.906 91.0233C209.004 91.8209 206.42 98.2015 206.42 98.3012Z" fill="#9B434C"/>
<path d="M239.316 48.7518C234.745 48.7518 227.788 39.3803 227.49 38.9815L227.788 38.7821C227.887 38.8818 234.943 48.4527 239.217 48.4527C239.217 48.4527 239.217 48.4527 239.316 48.4527C242.198 48.353 245.379 44.1657 247.466 41.3742C248.857 39.48 249.553 38.6824 249.95 38.7821L249.851 39.1809C249.553 39.1809 248.559 40.477 247.764 41.5736C245.776 44.3651 242.497 48.6521 239.316 48.7518C239.416 48.7518 239.416 48.7518 239.316 48.7518Z" fill="#9B434C"/>
<path d="M265.256 67.6942C265.156 67.5945 253.031 59.5191 244.882 61.1142L244.782 60.7154C253.131 59.0206 265.355 67.2954 265.454 67.2954L265.256 67.6942Z" fill="#9B434C"/>
<path d="M234.546 26.8185C234.546 26.8185 236.732 29.7097 239.416 29.7097C242 29.7097 244.484 27.317 244.484 27.317C244.484 27.317 244.186 29.0118 244.186 29.8094C244.186 30.5073 240.708 33.2988 236.931 33.2988C235.341 33.2988 234.447 30.4076 234.546 30.0088C234.546 29.4106 234.844 27.8155 234.546 26.8185Z" fill="#C87D79"/>
<path d="M166.269 30.0088C166.269 30.0088 209.998 28.3139 211.588 30.0088C213.278 31.7036 213.278 37.2867 211.588 37.8848C209.899 38.483 166.766 38.7821 166.269 38.7821C165.772 38.8818 165.275 30.0088 166.269 30.0088Z" fill="#FEFADA"/>
<path d="M174.021 44.3651C174.021 44.3651 216.557 42.8697 218.247 44.3651C219.937 45.8606 219.937 50.8454 218.247 51.4436C216.557 52.0418 174.617 52.2412 174.021 52.3409C173.524 52.3409 173.127 44.4648 174.021 44.3651Z" fill="#FEFADA"/>
<path d="M176.804 70.3861L176.307 56.1294C176.307 56.1294 173.922 55.6309 173.425 56.1294C172.928 56.6279 172.928 70.1867 173.425 70.2864C173.922 70.2864 175.313 70.3861 176.804 70.3861Z" fill="#493558"/>
<path d="M182.668 70.3861L182.171 56.1294C182.171 56.1294 179.785 55.6309 179.288 56.1294C178.792 56.6279 178.792 70.1867 179.288 70.2864C179.885 70.2864 181.276 70.3861 182.668 70.3861Z" fill="#493558"/>
<path d="M208.607 68.7909L208.309 54.4345C208.309 54.4345 205.923 53.936 205.426 54.4345C204.93 54.933 204.731 68.4918 205.228 68.5915C205.725 68.6912 207.215 68.7909 208.607 68.7909Z" fill="#493558"/>
<path d="M214.57 68.8906L214.272 54.5342C214.272 54.5342 211.886 54.0358 211.389 54.5342C210.893 55.0327 210.694 68.5915 211.191 68.6912C211.688 68.6912 213.079 68.8906 214.57 68.8906Z" fill="#493558"/>
<path d="M215.961 63.1082C215.961 63.1082 205.526 59.6188 202.047 59.0206C198.569 58.4224 194.097 58.3227 195.687 59.1203C197.376 59.9179 199.662 60.7155 199.662 60.7155C199.662 60.7155 195.488 60.217 195.488 60.8151C195.488 61.4133 199.563 63.3076 199.563 63.3076C199.563 63.3076 194.892 61.513 195.289 63.0085C195.687 64.6036 204.532 68.1927 207.613 70.2864C211.091 72.6791 219.936 65.6006 215.961 63.1082Z" fill="#E7BD9F"/>
<path d="M254.721 171.578C253.131 171.578 251.342 171.08 251.242 171.08L251.342 170.681C252.435 170.98 255.615 171.578 256.609 170.681L256.907 170.98C256.41 171.479 255.615 171.578 254.721 171.578Z" fill="#FEFADA"/>
<path d="M255.516 173.672C254.323 173.672 253.23 173.273 253.131 173.273L253.23 172.875C253.23 172.875 255.715 173.672 257.007 172.875L257.205 173.174C256.808 173.572 256.112 173.672 255.516 173.672Z" fill="#FEFADA"/>
<path d="M265.951 170.781C264.361 170.781 262.572 170.282 262.473 170.282L262.572 169.884C263.665 170.183 266.846 170.781 267.839 169.884L268.138 170.183C267.641 170.582 266.846 170.781 265.951 170.781Z" fill="#FEFADA"/>
<path d="M266.746 172.875C265.554 172.875 264.46 172.476 264.361 172.476L264.46 172.077C264.46 172.077 266.945 172.875 268.237 172.077L268.436 172.376C267.939 172.775 267.343 172.875 266.746 172.875Z" fill="#FEFADA"/>
<path d="M273.008 161.21C272.61 161.21 264.46 160.811 261.678 159.216L261.877 158.917C264.56 160.512 272.908 160.911 273.008 160.911V161.21Z" fill="#A36E4C"/>
<path d="M255.317 159.116C251.342 159.116 246.075 159.017 244.584 159.017V158.618C250.348 158.718 259.193 158.817 259.69 158.618L259.889 159.017C259.69 159.017 257.802 159.116 255.317 159.116Z" fill="#A36E4C"/>
<path d="M165.673 32.7006V32.3018C165.772 32.3018 177.301 31.8033 182.568 31.8033C186.345 31.8033 199.066 31.7036 206.718 31.6039C209.899 31.6039 212.085 31.5042 212.383 31.5042V31.903C212.085 31.903 209.899 31.903 206.718 32.0027C199.066 32.1024 186.345 32.2021 182.568 32.2021C177.301 32.2021 165.772 32.7006 165.673 32.7006Z" fill="#D3D0B1"/>
<path d="M181.972 36.7882C175.413 36.7882 166.369 36.5888 166.17 36.5888V36.19C166.369 36.19 182.469 36.5888 187.239 36.2897C192.01 35.9906 211.886 34.2957 212.185 34.2957V34.6945C211.986 34.6945 192.01 36.3894 187.239 36.6885C186.047 36.7882 184.158 36.7882 181.972 36.7882Z" fill="#D3D0B1"/>
<path d="M185.351 47.9542C179.885 47.9542 173.524 47.7548 173.425 47.7548V47.3561C173.524 47.3561 187.835 47.8545 192.01 47.3561C196.283 46.8576 218.843 46.5585 219.042 46.5585V46.9573C218.843 46.9573 196.184 47.2564 192.01 47.7548C190.618 47.8545 188.034 47.9542 185.351 47.9542Z" fill="#D3D0B1"/>
<path d="M174.021 50.646V50.2473C174.22 50.2473 196.184 50.1476 199.563 49.4497C203.041 48.7518 218.545 49.0509 219.141 49.0509V49.4497C218.943 49.4497 203.041 49.1506 199.563 49.8485C196.184 50.4467 174.916 50.646 174.021 50.646Z" fill="#D3D0B1"/>
<path d="M202.147 31.6039C202.147 31.6039 202.445 44.2654 202.544 45.3621C202.644 46.4588 205.228 40.6764 205.228 40.6764L208.11 45.6612L208.607 31.4045C208.706 31.3048 202.544 31.0058 202.147 31.6039Z" fill="#B94D59"/>
<path d="M184.854 166.992C184.854 166.992 175.711 163.104 171.934 176.065C168.157 189.025 168.356 194.309 174.22 196.204C180.084 198.098 181.177 193.213 185.848 195.007C190.419 196.802 198.569 197.599 199.861 192.016C201.153 186.533 197.178 160.911 184.854 166.992Z" fill="#B94D59"/>
<path d="M191.115 174.769C191.115 174.769 189.028 194.409 192.407 197.3C195.687 200.192 209.104 195.805 212.681 201.388C216.259 207.071 215.166 248.844 215.166 248.844H158.617C158.617 248.844 159.611 200.59 162.493 198.497C165.474 196.403 179.189 201.488 179.885 193.213C180.183 189.225 180.581 178.059 180.581 178.059L191.115 174.769Z" fill="#E7BD9F"/>
<path d="M180.183 189.524C180.183 189.524 186.146 194.309 190.419 186.932C190.419 186.932 190.32 191.318 190.419 192.016C190.519 192.714 186.146 196.503 185.55 196.503C183.761 196.503 179.984 192.216 179.984 192.216L180.183 189.524Z" fill="#C87D79"/>
<path d="M175.114 198.198C175.114 198.198 178.493 209.762 184.655 210.66C190.817 211.557 192.308 197.799 194.097 198.198C195.886 198.596 205.427 193.811 209.7 200.59C213.974 207.37 213.576 260.708 213.576 260.708H158.617C158.617 260.708 159.71 210.46 161.101 204.678C162.493 198.796 171.934 197.4 175.114 198.198Z" fill="#7F6873"/>
<path d="M193.401 172.875C193.401 172.875 194.295 193.312 183.96 192.714C176.804 192.315 174.22 179.754 176.605 174.27C178.99 168.687 189.525 167.989 193.401 172.875Z" fill="#E7BD9F"/>
<path d="M181.446 182.82C181.47 182.38 181.223 182.009 180.894 181.991C180.566 181.973 180.279 182.315 180.255 182.755C180.231 183.195 180.479 183.566 180.807 183.584C181.136 183.602 181.422 183.26 181.446 182.82Z" fill="#44324E"/>
<path d="M188.418 182.836C188.442 182.396 188.195 182.025 187.866 182.007C187.537 181.989 187.251 182.331 187.227 182.77C187.203 183.21 187.45 183.582 187.779 183.6C188.108 183.618 188.394 183.276 188.418 182.836Z" fill="#44324E"/>
<path d="M192.01 182.545C192.01 182.545 193.401 179.155 194.792 180.751C196.184 182.346 194.296 186.433 192.805 186.334C191.413 186.234 191.215 183.941 192.01 182.545Z" fill="#E7BD9F"/>
<path d="M187.637 178.158C187.637 178.158 189.128 177.76 189.923 179.554C190.419 180.651 185.947 178.458 187.637 178.158Z" fill="#B94D59"/>
<path d="M181.872 178.358C181.872 178.358 180.481 177.56 179.288 179.056C178.493 179.953 183.363 179.155 181.872 178.358Z" fill="#B94D59"/>
<path d="M177.003 181.947C177.003 181.947 176.009 178.458 174.419 179.853C172.828 181.249 174.22 185.536 175.711 185.636C177.201 185.636 177.698 183.343 177.003 181.947Z" fill="#E7BD9F"/>
<path d="M184.854 186.334C184.357 186.334 183.363 186.234 183.164 185.237L183.562 185.137C183.761 185.735 184.258 185.935 184.755 185.935C184.854 185.436 184.655 183.044 184.456 180.95H184.854C185.152 184.34 185.251 186.134 185.053 186.334H184.854Z" fill="#C87D79"/>
<path d="M184.258 188.328C182.469 188.328 181.177 186.035 181.077 185.935L181.475 185.735C181.475 185.735 182.767 187.929 184.258 187.929C185.152 187.929 185.947 187.131 186.643 185.735L187.04 185.935C186.245 187.53 185.351 188.328 184.258 188.328Z" fill="#C87D79"/>
<path d="M176.307 184.24H175.909C176.009 181.847 175.015 181.448 175.015 181.448L175.114 181.05C175.114 181.149 176.406 181.448 176.307 184.24Z" fill="#C87D79"/>
<path d="M192.904 185.237H192.507C192.705 182.445 193.997 182.246 194.097 182.246L194.196 182.645C194.097 182.545 193.103 182.745 192.904 185.237Z" fill="#C87D79"/>
<path d="M174.319 178.856C174.319 178.856 175.313 180.152 177.798 179.056C184.059 176.065 185.252 169.186 185.252 169.186C185.252 169.186 185.848 173.872 186.742 175.467C187.637 177.062 192.01 180.152 193.004 179.853C193.997 179.554 196.681 173.672 191.413 169.684C186.146 165.597 184.854 167.192 181.773 168.488C178.792 169.684 171.835 174.569 174.319 178.856Z" fill="#B94D59"/>
<path d="M185.748 169.086C188.987 169.086 191.612 166.453 191.612 163.204C191.612 159.955 188.987 157.322 185.748 157.322C182.51 157.322 179.885 159.955 179.885 163.204C179.885 166.453 182.51 169.086 185.748 169.086Z" fill="#B94D59"/>
<path d="M184.655 210.859C184.655 210.859 179.487 196.802 176.108 198.596C172.729 200.391 169.946 210.66 172.729 212.454C175.512 214.249 184.655 210.859 184.655 210.859Z" fill="#FEFADA"/>
<path d="M185.748 210.859C185.748 210.859 190.916 196.802 194.295 198.596C197.674 200.391 200.457 210.66 197.674 212.454C194.892 214.249 185.748 210.859 185.748 210.859Z" fill="#FEFADA"/>
<path d="M197.675 197.5C197.675 197.5 196.184 243.859 198.768 248.943C201.352 254.028 213.874 251.835 215.266 247.847C216.657 243.859 214.57 207.071 213.576 204.279C212.582 201.488 209.402 195.107 197.675 197.5Z" fill="#CA9661"/>
<path d="M175.313 197.5C175.313 197.5 176.804 243.859 174.22 248.943C171.636 254.028 159.114 251.835 157.722 247.847C156.331 243.859 158.418 207.071 159.412 204.279C160.306 201.488 163.486 195.107 175.313 197.5Z" fill="#CA9661"/>
<path d="M129.696 266.789C129.696 266.789 122.838 235.783 142.318 235.285C161.797 234.786 204.134 269.979 190.519 282.741C176.903 295.402 130.69 291.015 129.696 266.789Z" fill="#6A8185"/>
<path d="M244.683 266.789C244.683 266.789 248.559 235.783 229.08 235.185C209.601 234.587 162.493 269.979 176.108 282.641C189.724 295.402 243.789 291.016 244.683 266.789Z" fill="#6A8185"/>
<path d="M48.9962 288.523H189.525C189.525 288.523 176.108 240.868 134.963 241.167C93.8184 241.466 76.625 279.75 46.0147 258.714C46.0147 258.714 37.8652 278.553 48.9962 288.523Z" fill="#FEFADA"/>
<path d="M319.022 288.523H178.493C178.493 288.523 191.91 240.868 233.055 241.167C274.2 241.466 291.393 279.75 322.004 258.714C322.004 258.714 330.253 278.553 319.022 288.523Z" fill="#FEFADA"/>
<path d="M172.033 197.898C172.033 197.898 172.033 192.615 170.94 189.225C169.847 185.835 169.251 181.349 170.245 182.944C171.238 184.439 172.332 186.732 172.332 186.732C172.332 186.732 171.338 182.645 171.934 182.645C172.53 182.645 174.916 186.334 174.916 186.334C174.916 186.334 172.928 182.645 174.518 182.844C176.108 183.044 183.86 192.714 179.487 201.687C177.698 205.376 175.015 201.587 172.033 197.898Z" fill="#DC9A8E"/>
<path d="M171.636 195.406C171.636 195.406 179.189 196.303 181.475 200.391C183.761 204.479 163.785 243.56 154.741 243.759C145.597 243.958 140.926 236.78 139.436 235.185C137.945 233.59 163.685 192.116 171.636 195.406Z" fill="#CA9661"/>
<path d="M196.879 197.898C196.879 197.898 196.879 192.615 197.973 189.225C199.066 185.835 199.662 181.349 198.668 182.944C197.674 184.439 196.581 186.732 196.581 186.732C196.581 186.732 197.575 182.645 196.979 182.645C196.382 182.545 193.997 186.334 193.997 186.334C193.997 186.334 195.985 182.645 194.395 182.844C192.805 183.044 185.053 194.409 189.426 201.687C191.513 205.176 193.898 201.587 196.879 197.898Z" fill="#DC9A8E"/>
<path d="M196.879 195.406C196.879 195.406 189.326 196.303 187.04 200.391C184.755 204.479 204.731 243.56 213.775 243.759C222.918 243.958 227.589 236.78 229.08 235.185C230.571 233.59 204.83 192.116 196.879 195.406Z" fill="#CA9661"/>
<path d="M169.35 197.5C169.35 197.5 165.574 230.2 162.99 235.285C160.406 240.369 140.926 239.273 139.436 235.185C138.044 231.197 152.455 207.071 153.349 204.279C154.244 201.488 157.523 195.107 169.35 197.5Z" fill="#CA9661"/>
<path d="M202.346 197.5C202.346 197.5 206.122 230.2 208.706 235.285C211.29 240.369 227.688 239.273 229.08 235.185C230.471 231.098 216.756 207.27 215.762 204.478C214.868 201.687 212.88 195.207 202.346 197.5Z" fill="#CA9661"/>
<path d="M223.912 226.611C217.651 211.557 205.824 198.497 202.346 197.699L202.445 197.3C206.52 198.198 218.446 212.255 224.309 226.512L223.912 226.611Z" fill="#A36E4C"/>
<path d="M205.128 237.378C205.029 237.279 198.47 226.113 197.078 224.617L197.376 224.318C198.768 225.913 205.228 236.681 205.426 237.179L205.128 237.378Z" fill="#A36E4C"/>
<path d="M171.04 187.231L170.94 186.832C171.04 186.732 174.518 185.536 175.81 186.134L175.611 186.533C174.717 186.035 172.033 186.832 171.04 187.231Z" fill="#C87D79"/>
<path d="M180.183 206.672C178.096 203.382 165.176 197.998 165.077 197.898L165.275 197.5C165.772 197.699 178.394 202.983 180.581 206.373L180.183 206.672Z" fill="#A36E4C"/>
<path d="M143.908 226.312L143.51 226.113C146.79 218.336 161.698 201.587 161.797 201.388L162.095 201.687C161.996 201.787 147.187 218.635 143.908 226.312Z" fill="#A36E4C"/>
<path d="M162.095 238.774L161.797 238.475C161.896 238.375 173.027 225.814 174.816 217.738L175.214 217.838C173.325 226.113 162.194 238.675 162.095 238.774Z" fill="#A36E4C"/>
<path d="M321.109 288.523H48.9962V302.78H321.109V288.523Z" fill="#C87D79"/>
<path d="M152.157 242.563C148.181 242.563 143.311 241.167 140.728 235.085C140.628 234.886 140.728 234.786 140.728 234.786C140.926 234.587 141.423 234.687 143.51 235.285C147.187 236.381 154.144 238.475 161.896 238.475V238.874C154.045 238.874 147.088 236.78 143.411 235.684C142.417 235.385 141.523 235.085 141.125 235.085C145.995 246.052 158.418 241.067 158.517 241.067L158.716 241.466C158.617 241.466 155.734 242.563 152.157 242.563Z" fill="#A36E4C"/>
<path d="M188.134 205.575L187.935 205.276C188.332 204.977 198.47 199.095 202.346 199.494V199.892C198.668 199.394 188.233 205.475 188.134 205.575Z" fill="#A36E4C"/>
<path d="M214.47 239.871C210.793 239.871 208.01 238.774 207.911 238.774L208.01 238.375C208.11 238.375 220.831 243.161 227.589 231.995L227.887 232.194C224.309 238.475 218.744 239.871 214.47 239.871Z" fill="#A36E4C"/>
<path d="M180.779 185.337C179.189 185.337 177.897 184.041 177.897 182.445C177.897 180.85 179.189 179.554 180.779 179.554C182.369 179.554 183.661 180.85 183.661 182.445C183.661 184.041 182.369 185.337 180.779 185.337ZM180.779 180.053C179.388 180.053 178.295 181.149 178.295 182.545C178.295 183.941 179.388 185.038 180.779 185.038C182.171 185.038 183.264 183.941 183.264 182.545C183.264 181.149 182.171 180.053 180.779 180.053Z" fill="#FEFADA"/>
<path d="M188.034 185.337C186.444 185.337 185.152 184.041 185.152 182.445C185.152 180.85 186.444 179.554 188.034 179.554C189.624 179.554 190.916 180.85 190.916 182.445C190.916 184.041 189.624 185.337 188.034 185.337ZM188.034 180.053C186.643 180.053 185.55 181.149 185.55 182.545C185.55 183.941 186.643 185.038 188.034 185.038C189.426 185.038 190.519 183.941 190.519 182.545C190.519 181.149 189.426 180.053 188.034 180.053Z" fill="#FEFADA"/>
<path d="M185.748 181.947H183.363V182.346H185.748V181.947Z" fill="#FEFADA"/>
<path d="M175.902 179.46L175.684 179.793L178.339 181.548L178.558 181.215L175.902 179.46Z" fill="#FEFADA"/>
<path d="M190.817 181.548L190.618 181.249L193.302 180.152L193.5 180.551L190.817 181.548Z" fill="#FEFADA"/>
<path d="M181.376 288.623C170.642 265.294 160.704 254.427 148.082 252.134C136.057 249.94 122.143 255.723 102.962 263.698C98.3901 265.593 93.5202 267.587 88.3523 269.68C68.3761 277.656 54.9593 278.852 48.4 273.469C43.3314 269.282 44.6234 262.402 44.6234 262.402L45.0209 262.502C45.0209 262.602 43.8283 269.182 48.6981 273.17C53.071 276.858 63.5063 279.152 88.2529 269.282C93.4209 267.188 98.1913 265.294 102.862 263.3C122.143 255.324 136.057 249.442 148.181 251.635C160.903 253.928 170.94 264.895 181.773 288.324L181.376 288.623Z" fill="#D3D0B1"/>
<path d="M174.916 289.121C174.717 288.922 158.815 268.085 133.075 270.179C124.429 270.877 113.198 274.067 101.372 277.457C77.3206 284.236 52.3753 291.315 43.6295 279.55L43.9277 279.351C52.5741 290.916 77.3206 283.837 101.272 277.058C113.099 273.668 124.329 270.578 133.075 269.78C159.014 267.587 175.114 288.623 175.214 288.822L174.916 289.121Z" fill="#D3D0B1"/>
<path d="M99.5827 288.722L99.4833 288.324C112.403 283.538 130.988 278.553 146.194 282.043C155.238 284.136 158.716 288.224 158.915 288.423L158.617 288.722C158.617 288.722 155.039 284.535 146.094 282.541C137.647 280.547 122.838 280.148 99.5827 288.722Z" fill="#D3D0B1"/>
<path d="M187.04 288.623L186.643 288.423C197.476 264.995 207.514 254.028 220.235 251.735C232.36 249.541 246.273 255.324 265.554 263.399C270.125 265.294 274.995 267.288 280.163 269.381C293.779 274.765 311.767 279.849 319.718 273.269C324.588 269.282 323.395 262.602 323.395 262.602L323.793 262.502C323.793 262.602 324.985 269.381 320.016 273.568C313.457 278.952 300.04 277.656 280.064 269.78C274.896 267.686 270.125 265.792 265.454 263.798C246.273 255.822 232.36 250.04 220.334 252.233C207.712 254.427 197.774 265.294 187.04 288.623Z" fill="#D3D0B1"/>
<path d="M193.5 289.121L193.202 288.922C193.401 288.722 209.501 267.686 235.341 269.88C243.987 270.578 255.218 273.768 267.144 277.158C291.095 283.937 315.842 290.916 324.488 279.451L324.786 279.65C316.041 291.414 291.095 284.336 267.044 277.556C255.218 274.167 243.987 271.076 235.341 270.278C209.6 268.085 193.6 288.922 193.5 289.121Z" fill="#D3D0B1"/>
<path d="M268.833 288.722C255.913 283.937 237.428 278.952 222.421 282.442C213.477 284.535 209.998 288.623 209.899 288.623L209.601 288.324C209.7 288.124 213.178 284.037 222.322 281.943C230.67 280.049 245.578 279.55 268.933 288.224L268.833 288.722Z" fill="#D3D0B1"/>
<path d="M177.102 179.455L177.003 179.056C177.4 178.956 185.649 177.461 185.053 168.488H185.45C185.748 173.373 183.463 176.165 181.475 177.56C179.388 179.056 177.201 179.455 177.102 179.455Z" fill="#B94D59"/>
<path d="M181.574 167.192C180.282 166.793 179.487 165.995 179.289 165.098C178.692 162.506 182.469 159.116 182.668 158.917L182.966 159.216C182.966 159.216 179.289 162.606 179.785 164.998C179.984 165.796 180.68 166.394 181.872 166.793L181.574 167.192Z" fill="#B94D59"/>
<path d="M189.127 168.189L189.028 167.79C189.028 167.79 191.115 167.292 191.711 165.696C192.109 164.6 191.711 163.204 190.519 161.509L190.817 161.31C192.109 163.104 192.506 164.6 192.01 165.896C191.413 167.591 189.227 168.089 189.127 168.189Z" fill="#B94D59"/>
<path d="M170.245 192.814C170.245 192.814 167.661 188.926 168.456 184.24C168.853 181.847 169.847 180.651 170.741 179.754C171.636 178.757 172.232 178.059 171.735 176.165C171.139 173.872 172.928 170.382 174.916 168.488C176.406 166.992 177.897 166.494 179.189 166.893L179.09 167.292C177.997 166.893 176.605 167.491 175.214 168.787C173.027 170.881 171.636 174.171 172.133 176.065C172.729 178.158 172.033 178.956 171.04 180.053C170.245 180.95 169.251 182.047 168.853 184.34C168.058 188.826 170.543 192.615 170.543 192.615L170.245 192.814Z" fill="#B94D59"/>
<path d="M178.394 177.062L178.295 176.663C181.873 175.865 183.264 172.575 183.463 170.083C183.562 168.986 183.264 168.388 183.165 168.288C183.065 168.288 182.966 168.288 182.866 168.488C181.376 170.582 174.717 176.165 174.419 176.464L174.121 176.165C174.22 176.065 180.978 170.382 182.469 168.288C182.767 167.89 183.065 167.89 183.165 167.89C183.661 168.089 183.86 169.086 183.761 170.083C183.761 172.775 182.27 176.165 178.394 177.062Z" fill="#934048"/>
<path d="M185.251 165.597C183.661 164.101 184.258 161.409 184.357 161.31L184.755 161.409C184.755 161.409 184.158 164.002 185.55 165.298L185.251 165.597Z" fill="#934048"/>
<path d="M186.345 165.696C186.146 165.696 186.047 165.696 186.047 165.696H185.748L185.848 165.397C187.14 163.104 187.537 160.412 187.537 160.313L187.935 160.412C187.935 160.512 187.537 163.005 186.345 165.298C186.643 165.298 187.14 165.198 187.438 164.899C187.935 164.4 188.233 163.702 188.134 162.606H188.531C188.531 163.802 188.233 164.699 187.637 165.298C187.339 165.597 186.742 165.696 186.345 165.696Z" fill="#934048"/>
<path d="M192.606 177.361C192.407 177.062 188.134 170.781 187.14 168.488L187.537 168.288C188.531 170.582 192.904 176.962 192.904 177.062L192.606 177.361Z" fill="#934048"/>
<path d="M195.587 181.149C195.289 175.168 191.413 170.183 191.413 170.183L191.711 169.983C191.711 170.083 195.687 175.068 195.985 181.249L195.587 181.149Z" fill="#934048"/>
<path d="M199.066 181.349C199.066 176.464 197.675 173.572 196.581 172.077C195.389 170.382 194.097 169.784 194.097 169.784L194.295 169.385C194.494 169.485 199.463 171.778 199.563 181.349H199.066Z" fill="#B94D59"/>
<path d="M197.078 187.131C196.184 185.835 192.904 186.533 192.904 186.533L192.805 186.134C192.904 186.134 196.283 185.436 197.376 186.832L197.078 187.131Z" fill="#C87D79"/>
</g>
<defs>
<clipPath id="clip0">
<rect width="371" height="329" fill="white"/>
</clipPath>
</defs>
</svg>
